<svg width="641" height="231" viewBox="0 0 641 231" fill="none" xmlns="http://www.w3.org/2000/svg">
<path d="M41.55 48.7H87.75V75.4H41.55V48.7ZM43.95 109H8.55V3.99999H93.9V30.7H43.95V109ZM159.333 111.4C143.233 111.4 130.683 107.05 121.683 98.35C112.683 89.65 108.183 77.45 108.183 61.75V3.99999H143.583V60.7C143.583 68.7 145.033 74.4 147.933 77.8C150.833 81.1 154.733 82.75 159.633 82.75C164.633 82.75 168.533 81.1 171.333 77.8C174.233 74.4 175.683 68.7 175.683 60.7V3.99999H210.483V61.75C210.483 77.45 205.983 89.65 196.983 98.35C187.983 107.05 175.433 111.4 159.333 111.4ZM230.71 109V3.99999H266.11V81.55H313.51V109H230.71ZM327.288 109V3.99999H362.688V81.55H410.088V109H327.288ZM47.7 230.4C38.9 230.4 30.4 229.4 22.2 227.4C14 225.4 7.25 222.8 1.95 219.6L13.35 193.8C18.35 196.7 23.9 199.05 30 200.85C36.2 202.55 42.2 203.4 48 203.4C51.4 203.4 54.05 203.2 55.95 202.8C57.95 202.3 59.4 201.65 60.3 200.85C61.2 199.95 61.65 198.9 61.65 197.7C61.65 195.8 60.6 194.3 58.5 193.2C56.4 192.1 53.6 191.2 50.1 190.5C46.7 189.7 42.95 188.9 38.85 188.1C34.75 187.2 30.6 186.05 26.4 184.65C22.3 183.25 18.5 181.4 15 179.1C11.6 176.8 8.85 173.8 6.75 170.1C4.65 166.3 3.6 161.6 3.6 156C3.6 149.5 5.4 143.6 9 138.3C12.7 132.9 18.15 128.6 25.35 125.4C32.65 122.2 41.7 120.6 52.5 120.6C59.6 120.6 66.6 121.35 73.5 122.85C80.4 124.35 86.6 126.65 92.1 129.75L81.45 155.4C76.25 152.8 71.2 150.85 66.3 149.55C61.5 148.25 56.8 147.6 52.2 147.6C48.8 147.6 46.1 147.9 44.1 148.5C42.1 149.1 40.65 149.9 39.75 150.9C38.95 151.9 38.55 153 38.55 154.2C38.55 156 39.6 157.45 41.7 158.55C43.8 159.55 46.55 160.4 49.95 161.1C53.45 161.8 57.25 162.55 61.35 163.35C65.55 164.15 69.7 165.25 73.8 166.65C77.9 168.05 81.65 169.9 85.05 172.2C88.55 174.5 91.35 177.5 93.45 181.2C95.55 184.9 96.6 189.5 96.6 195C96.6 201.4 94.75 207.3 91.05 212.7C87.45 218 82.05 222.3 74.85 225.6C67.65 228.8 58.6 230.4 47.7 230.4ZM132.469 228V150.45H101.719V123H198.619V150.45H167.869V228H132.469ZM195.14 228L241.04 123H275.84L321.74 228H285.14L251.24 139.8H265.04L231.14 228H195.14ZM222.44 209.7L231.44 184.2H279.74L288.74 209.7H222.44ZM384.225 230.4C375.825 230.4 368.025 229.1 360.825 226.5C353.725 223.8 347.525 220 342.225 215.1C337.025 210.2 332.975 204.4 330.075 197.7C327.175 191 325.725 183.6 325.725 175.5C325.725 167.4 327.175 160 330.075 153.3C332.975 146.6 337.025 140.8 342.225 135.9C347.525 131 353.725 127.25 360.825 124.65C368.025 121.95 375.825 120.6 384.225 120.6C394.525 120.6 403.625 122.4 411.525 126C419.525 129.6 426.125 134.8 431.325 141.6L408.975 161.55C405.875 157.65 402.425 154.65 398.625 152.55C394.925 150.35 390.725 149.25 386.025 149.25C382.325 149.25 378.975 149.85 375.975 151.05C372.975 152.25 370.375 154 368.175 156.3C366.075 158.6 364.425 161.4 363.225 164.7C362.025 167.9 361.425 171.5 361.425 175.5C361.425 179.5 362.025 183.15 363.225 186.45C364.425 189.65 366.075 192.4 368.175 194.7C370.375 197 372.975 198.75 375.975 199.95C378.975 201.15 382.325 201.75 386.025 201.75C390.725 201.75 394.925 200.7 398.625 198.6C402.425 196.4 405.875 193.35 408.975 189.45L431.325 209.4C426.125 216.1 419.525 221.3 411.525 225C403.625 228.6 394.525 230.4 384.225 230.4ZM477.196 205.5L475.246 166.65L514.846 123H553.396L508.996 171.9L489.346 192L477.196 205.5ZM445.546 228V123H480.346V228H445.546ZM514.546 228L483.646 187.2L506.596 162.9L555.496 228H514.546Z" fill="#464646"/>
<path d="M438.12 70.32C436.093 70.32 434.267 69.8667 432.64 68.96C431.013 68.0267 429.72 66.7333 428.76 65.08C427.827 63.4267 427.36 61.48 427.36 59.24C427.36 56.9733 427.827 55.0133 428.76 53.36C429.72 51.7067 431.013 50.4267 432.64 49.52C434.267 48.6133 436.093 48.16 438.12 48.16C439.933 48.16 441.52 48.56 442.88 49.36C444.24 50.16 445.293 51.3733 446.04 53C446.787 54.6267 447.16 56.7067 447.16 59.24C447.16 61.7467 446.8 63.8267 446.08 65.48C445.36 67.1067 444.32 68.32 442.96 69.12C441.627 69.92 440.013 70.32 438.12 70.32ZM439.2 65.2C440.213 65.2 441.133 64.96 441.96 64.48C442.787 64 443.44 63.32 443.92 62.44C444.427 61.5333 444.68 60.4667 444.68 59.24C444.68 57.9867 444.427 56.92 443.92 56.04C443.44 55.16 442.787 54.48 441.96 54C441.133 53.52 440.213 53.28 439.2 53.28C438.16 53.28 437.227 53.52 436.4 54C435.573 54.48 434.907 55.16 434.4 56.04C433.92 56.92 433.68 57.9867 433.68 59.24C433.68 60.4667 433.92 61.5333 434.4 62.44C434.907 63.32 435.573 64 436.4 64.48C437.227 64.96 438.16 65.2 439.2 65.2ZM444.84 70V65.6L444.96 59.2L444.56 52.84V40.32H450.8V70H444.84ZM467.255 70.32C464.802 70.32 462.642 69.84 460.775 68.88C458.935 67.92 457.509 66.6133 456.495 64.96C455.482 63.28 454.975 61.3733 454.975 59.24C454.975 57.08 455.469 55.1733 456.455 53.52C457.469 51.84 458.842 50.5333 460.575 49.6C462.309 48.64 464.269 48.16 466.455 48.16C468.562 48.16 470.455 48.6133 472.135 49.52C473.842 50.4 475.189 51.68 476.175 53.36C477.162 55.0133 477.655 57 477.655 59.32C477.655 59.56 477.642 59.84 477.615 60.16C477.589 60.4533 477.562 60.7333 477.535 61H460.055V57.36H474.255L471.855 58.44C471.855 57.32 471.629 56.3467 471.175 55.52C470.722 54.6933 470.095 54.0533 469.295 53.6C468.495 53.12 467.562 52.88 466.495 52.88C465.429 52.88 464.482 53.12 463.655 53.6C462.855 54.0533 462.229 54.7067 461.775 55.56C461.322 56.3867 461.095 57.3733 461.095 58.52V59.48C461.095 60.6533 461.349 61.6933 461.855 62.6C462.389 63.48 463.122 64.16 464.055 64.64C465.015 65.0933 466.135 65.32 467.415 65.32C468.562 65.32 469.562 65.1467 470.415 64.8C471.295 64.4533 472.095 63.9333 472.815 63.24L476.135 66.84C475.149 67.96 473.909 68.8267 472.415 69.44C470.922 70.0267 469.202 70.32 467.255 70.32ZM487.259 70L478.219 48.48H484.659L492.179 67H488.979L496.779 48.48H502.779L493.699 70H487.259ZM515.419 70.32C512.966 70.32 510.806 69.84 508.939 68.88C507.099 67.92 505.673 66.6133 504.659 64.96C503.646 63.28 503.139 61.3733 503.139 59.24C503.139 57.08 503.633 55.1733 504.619 53.52C505.633 51.84 507.006 50.5333 508.739 49.6C510.473 48.64 512.433 48.16 514.619 48.16C516.726 48.16 518.619 48.6133 520.299 49.52C522.006 50.4 523.353 51.68 524.339 53.36C525.326 55.0133 525.819 57 525.819 59.32C525.819 59.56 525.806 59.84 525.779 60.16C525.753 60.4533 525.726 60.7333 525.699 61H508.219V57.36H522.419L520.019 58.44C520.019 57.32 519.793 56.3467 519.339 55.52C518.886 54.6933 518.259 54.0533 517.459 53.6C516.659 53.12 515.726 52.88 514.659 52.88C513.593 52.88 512.646 53.12 511.819 53.6C511.019 54.0533 510.393 54.7067 509.939 55.56C509.486 56.3867 509.259 57.3733 509.259 58.52V59.48C509.259 60.6533 509.513 61.6933 510.019 62.6C510.553 63.48 511.286 64.16 512.219 64.64C513.179 65.0933 514.299 65.32 515.579 65.32C516.726 65.32 517.726 65.1467 518.579 64.8C519.459 64.4533 520.259 63.9333 520.979 63.24L524.299 66.84C523.313 67.96 522.073 68.8267 520.579 69.44C519.086 70.0267 517.366 70.32 515.419 70.32ZM529.974 70V40.32H536.214V70H529.974ZM552.245 70.32C549.952 70.32 547.912 69.84 546.125 68.88C544.365 67.92 542.965 66.6133 541.925 64.96C540.912 63.28 540.405 61.3733 540.405 59.24C540.405 57.08 540.912 55.1733 541.925 53.52C542.965 51.84 544.365 50.5333 546.125 49.6C547.912 48.64 549.952 48.16 552.245 48.16C554.512 48.16 556.538 48.64 558.325 49.6C560.112 50.5333 561.512 51.8267 562.525 53.48C563.538 55.1333 564.045 57.0533 564.045 59.24C564.045 61.3733 563.538 63.28 562.525 64.96C561.512 66.6133 560.112 67.92 558.325 68.88C556.538 69.84 554.512 70.32 552.245 70.32ZM552.245 65.2C553.285 65.2 554.218 64.96 555.045 64.48C555.872 64 556.525 63.32 557.005 62.44C557.485 61.5333 557.725 60.4667 557.725 59.24C557.725 57.9867 557.485 56.92 557.005 56.04C556.525 55.16 555.872 54.48 555.045 54C554.218 53.52 553.285 53.28 552.245 53.28C551.205 53.28 550.272 53.52 549.445 54C548.618 54.48 547.952 55.16 547.445 56.04C546.965 56.92 546.725 57.9867 546.725 59.24C546.725 60.4667 546.965 61.5333 547.445 62.44C547.952 63.32 548.618 64 549.445 64.48C550.272 64.96 551.205 65.2 552.245 65.2ZM580.936 70.32C579.123 70.32 577.536 69.92 576.176 69.12C574.816 68.32 573.749 67.1067 572.976 65.48C572.229 63.8267 571.856 61.7467 571.856 59.24C571.856 56.7067 572.216 54.6267 572.936 53C573.656 51.3733 574.696 50.16 576.056 49.36C577.416 48.56 579.043 48.16 580.936 48.16C582.963 48.16 584.776 48.6267 586.376 49.56C588.003 50.4667 589.283 51.7467 590.216 53.4C591.176 55.0533 591.656 57 591.656 59.24C591.656 61.5067 591.176 63.4667 590.216 65.12C589.283 66.7733 588.003 68.0533 586.376 68.96C584.776 69.8667 582.963 70.32 580.936 70.32ZM568.216 77.76V48.48H574.176V52.88L574.056 59.28L574.456 65.64V77.76H568.216ZM579.856 65.2C580.896 65.2 581.816 64.96 582.616 64.48C583.443 64 584.096 63.32 584.576 62.44C585.083 61.5333 585.336 60.4667 585.336 59.24C585.336 57.9867 585.083 56.92 584.576 56.04C584.096 55.16 583.443 54.48 582.616 54C581.816 53.52 580.896 53.28 579.856 53.28C578.816 53.28 577.883 53.52 577.056 54C576.229 54.48 575.576 55.16 575.096 56.04C574.616 56.92 574.376 57.9867 574.376 59.24C574.376 60.4667 574.616 61.5333 575.096 62.44C575.576 63.32 576.229 64 577.056 64.48C577.883 64.96 578.816 65.2 579.856 65.2ZM606.513 70.32C604.06 70.32 601.9 69.84 600.033 68.88C598.193 67.92 596.766 66.6133 595.753 64.96C594.74 63.28 594.233 61.3733 594.233 59.24C594.233 57.08 594.726 55.1733 595.713 53.52C596.726 51.84 598.1 50.5333 599.833 49.6C601.566 48.64 603.526 48.16 605.713 48.16C607.82 48.16 609.713 48.6133 611.393 49.52C613.1 50.4 614.446 51.68 615.433 53.36C616.42 55.0133 616.913 57 616.913 59.32C616.913 59.56 616.9 59.84 616.873 60.16C616.846 60.4533 616.82 60.7333 616.793 61H599.313V57.36H613.513L611.113 58.44C611.113 57.32 610.886 56.3467 610.433 55.52C609.98 54.6933 609.353 54.0533 608.553 53.6C607.753 53.12 606.82 52.88 605.753 52.88C604.686 52.88 603.74 53.12 602.913 53.6C602.113 54.0533 601.486 54.7067 601.033 55.56C600.58 56.3867 600.353 57.3733 600.353 58.52V59.48C600.353 60.6533 600.606 61.6933 601.113 62.6C601.646 63.48 602.38 64.16 603.313 64.64C604.273 65.0933 605.393 65.32 606.673 65.32C607.82 65.32 608.82 65.1467 609.673 64.8C610.553 64.4533 611.353 63.9333 612.073 63.24L615.393 66.84C614.406 67.96 613.166 68.8267 611.673 69.44C610.18 70.0267 608.46 70.32 606.513 70.32ZM621.068 70V48.48H627.028V54.56L626.188 52.8C626.828 51.28 627.854 50.1333 629.268 49.36C630.681 48.56 632.401 48.16 634.428 48.16V53.92C634.161 53.8933 633.921 53.88 633.708 53.88C633.494 53.8533 633.268 53.84 633.028 53.84C631.321 53.84 629.934 54.3333 628.868 55.32C627.828 56.28 627.308 57.7867 627.308 59.84V70H621.068Z" fill="#464646"/>
<rect x="426" y="4" width="215" height="27" fill="#464646"/>
<rect x="426" y="82" width="215" height="27" fill="#464646"/>
</svg>
